<svg xmlns="http://www.w3.org/2000/svg" version="1.1" xmlns:xlink="http://www.w3.org/1999/xlink" width="512" height="512" x="0" y="0" viewBox="0 0 32 32" style="enable-background:new 0 0 512 512" xml:space="preserve" class=""><g><path d="M28 4h-7V2a1 1 0 0 0-1-1h-8a1 1 0 0 0-1 1v2H4a1 1 0 0 0-1 1v3a1 1 0 0 0 1 1h1v18c0 2.206 1.794 4 4 4h14c2.206 0 4-1.794 4-4V9h1a1 1 0 0 0 1-1V5a1 1 0 0 0-1-1zM13 3h6v1h-6zm12 24c0 1.103-.897 2-2 2H9c-1.103 0-2-.897-2-2V9h18zm2-20H5V6h22zM15 26V12a1 1 0 0 1 2 0v14a1 1 0 0 1-2 0zm-5 0V12a1 1 0 0 1 2 0v14a1 1 0 0 1-2 0zm10 0V12a1 1 0 1 1 2 0v14a1 1 0 1 1-2 0z" fill="#414040" opacity="1" data-original="#000000" class=""></path></g></svg>